# xmcd
#
# Track frame offsets:
#	150
#	15195
#	33505
#	45805
#	62485
#	74975
#	88752
#	107142
#	120220
#	133437
#	150182
#	160495
#
# Disc length: 2364 seconds
#
# Revision: 6
# Processed by: cddbd v1.5.2PL0 Copyright (c) Steve Scherf et al.
# Submitted via: EZCDAudioConverter 2.4.0.1
#
DISCID=94093a0c
DTITLE=Chitãozinho and Xororó - Os Grandes Sucessos
DYEAR=1987
DGENRE=Sertanejo
TTITLE0=Se Deus Me Ouvisse
TTITLE1=Não Desligue o Rádio
TTITLE2=Amante Amada
TTITLE3=Terra Tombada
TTITLE4=Pago Dobrado
TTITLE5=Quem É Você
TTITLE6=Majestade o Sabiá
TTITLE7=Fio de Cabelo
TTITLE8=Fotografia
TTITLE9=Ela Chora Chora
TTITLE10=60 Dias Apaixonado
TTITLE11=Obras de Poeta
EXTD=
EXTT0=
EXTT1=
EXTT2=
EXTT3=
EXTT4=
EXTT5=
EXTT6=
EXTT7=
EXTT8=
EXTT9=
EXTT10=
EXTT11=
PLAYORDER=
